
<svg width="349" height="349" viewBox="0 0 349 349" fill="none" xmlns="http://www.w3.org/2000/svg">
<path d="M280.753 21.722H222.795V223.012H280.753V21.722Z" fill="#3176DE"/>
<path d="M172.806 114.403C184.704 114.403 196.152 116.302 206.857 119.808V184.072C197.931 175.889 185.963 170.88 172.806 170.88C145.198 170.88 122.817 192.923 122.817 220.116C122.817 247.309 145.198 269.353 172.806 269.353C199.428 269.353 221.185 248.857 222.707 223.013H222.795V126.48C257.246 144.26 280.753 179.842 280.753 220.84C280.753 279.624 232.423 327.278 172.806 327.278C113.189 327.278 64.8591 279.624 64.8591 220.84C64.8591 162.056 113.189 114.403 172.806 114.403Z" fill="#3176DE"/>
</svg>
