
<svg width="362" height="362" viewBox="0 0 362 362" fill="none" xmlns="http://www.w3.org/2000/svg">
<path d="M291.211 22.5312H231.094V231.32H291.211V22.5312Z" fill="#3176DE"/>
<path d="M179.243 118.664C191.584 118.664 203.458 120.634 214.562 124.27V190.929C205.304 182.441 192.89 177.245 179.243 177.245C150.606 177.245 127.392 200.11 127.392 228.316C127.392 256.521 150.606 279.386 179.243 279.386C206.856 279.386 229.424 258.127 231.002 231.32H231.094V131.191C266.828 149.633 291.211 186.541 291.211 229.067C291.211 290.04 241.081 339.469 179.243 339.469C117.405 339.469 67.2749 290.04 67.2749 229.067C67.2749 168.093 117.405 118.664 179.243 118.664Z" fill="#3176DE"/>
</svg>
