<svg width="565" height="208" viewBox="0 0 565 208" fill="none" xmlns="http://www.w3.org/2000/svg">
<path d="M167.242 12.9458H132.716V132.913H167.242V12.9458Z" fill="#3176DE"/>
<path d="M102.937 68.1831C110.025 68.1831 116.845 69.3149 123.222 71.404V109.705C117.904 104.828 110.775 101.842 102.937 101.842C86.4912 101.842 73.1593 114.98 73.1593 131.187C73.1593 147.394 86.4912 160.531 102.937 160.531C118.797 160.531 131.757 148.316 132.663 132.913H132.716V75.3805C153.238 85.9775 167.242 107.184 167.242 131.618C167.242 166.653 138.452 195.054 102.937 195.054C67.4231 195.054 38.6333 166.653 38.6333 131.618C38.6333 96.5837 67.4231 68.1831 102.937 68.1831Z" fill="#3176DE"/>
<path d="M241.979 151.424C242.31 147.79 242.64 143.991 242.97 140.027C243.41 136.063 243.74 132.263 243.961 128.63C244.291 124.996 244.566 121.747 244.786 118.884C245.006 116.021 245.116 113.929 245.116 112.608C245.116 109.744 244.401 107.212 242.97 105.009C241.649 102.697 239.008 101.541 235.045 101.541C229.762 101.541 225.47 104.018 222.168 108.974C218.976 113.929 217.105 120.536 216.554 128.795C216.334 131.107 216.059 134.356 215.729 138.54C215.399 142.615 215.069 146.799 214.738 151.094C214.408 155.278 214.078 159.077 213.748 162.491C213.528 165.794 213.418 167.832 213.418 168.602C213.418 169.924 213.142 170.805 212.592 171.245C212.152 171.686 211.216 171.906 209.785 171.906H203.842C200.43 171.906 197.623 171.576 195.422 170.915C193.331 170.144 191.625 169.098 190.304 167.776C189.093 166.455 188.213 164.858 187.662 162.986C187.222 161.004 187.002 158.747 187.002 156.214C187.002 153.792 187.167 150.433 187.497 146.138C187.938 141.734 188.488 135.732 189.148 128.134C189.809 120.426 190.579 110.625 191.46 98.7327C192.34 86.84 193.276 72.0842 194.266 54.4654C194.376 52.0428 194.651 50.6113 195.092 50.1708C195.422 49.8404 196.302 49.6753 197.733 49.6753H204.172C207.474 49.6753 210.226 50.0607 212.427 50.8315C214.628 51.6023 216.389 52.6484 217.71 53.9699C219.031 55.2913 219.966 56.8329 220.517 58.5948C221.067 60.2466 221.342 62.0084 221.342 63.8804C221.342 65.8626 221.122 69.5515 220.682 74.9473C220.352 80.343 219.911 86.6748 219.361 93.9426C222.663 88.4367 226.295 84.6376 230.257 82.5454C234.33 80.4531 239.448 79.407 245.612 79.407C250.234 79.407 254.252 79.9026 257.664 80.8936C261.076 81.8847 263.882 83.5915 266.084 86.0141C268.395 88.3266 270.101 91.4099 271.202 95.264C272.302 99.008 272.853 103.688 272.853 109.304C272.853 111.066 272.687 114.094 272.357 118.389C272.027 122.683 271.587 127.584 271.037 133.089C270.596 138.595 270.101 144.376 269.551 150.433C269.11 156.379 268.725 161.83 268.395 166.785C268.285 167.997 268.175 168.933 268.065 169.593C267.955 170.254 267.735 170.75 267.404 171.08C267.184 171.41 266.799 171.631 266.249 171.741C265.698 171.851 264.928 171.906 263.937 171.906H258.654C255.132 171.906 252.27 171.576 250.069 170.915C247.868 170.254 246.162 169.318 244.951 168.107C243.74 166.896 242.86 165.409 242.31 163.647C241.869 161.775 241.649 159.683 241.649 157.37C241.649 156.269 241.649 155.223 241.649 154.232C241.759 153.241 241.869 152.305 241.979 151.424ZM304.617 171.906C301.205 171.906 298.399 171.576 296.197 170.915C294.106 170.144 292.4 169.098 291.079 167.776C289.869 166.455 288.988 164.858 288.438 162.986C287.998 161.004 287.777 158.747 287.777 156.214C287.777 154.562 287.832 152.25 287.943 149.277C288.163 146.193 288.493 142.009 288.933 136.723C289.373 131.328 289.869 124.555 290.419 116.407C291.079 108.148 291.85 97.9619 292.73 85.8489C292.84 83.4263 293.116 81.9948 293.556 81.5543C293.886 81.224 294.767 81.0588 296.197 81.0588H302.636C306.048 81.0588 308.8 81.3891 310.891 82.0499C313.092 82.7106 314.798 83.7016 316.009 85.023C317.33 86.3444 318.21 87.9411 318.651 89.8131C319.201 91.6851 319.476 93.7774 319.476 96.0899C319.476 97.7416 319.366 100.219 319.146 103.523C318.926 106.826 318.596 111.341 318.155 117.067C317.825 122.683 317.33 129.731 316.669 138.21C316.009 146.579 315.184 156.71 314.193 168.602C314.083 169.924 313.808 170.805 313.368 171.245C312.927 171.686 311.992 171.906 310.561 171.906H304.617ZM292.895 61.568C292.895 57.1633 294.491 53.6946 297.683 51.1619C300.875 48.6291 305.168 47.3628 310.561 47.3628C315.294 47.3628 318.706 48.3539 320.797 50.336C322.998 52.208 324.099 54.7407 324.099 57.9341C324.099 62.0084 322.558 65.4221 319.476 68.175C316.504 70.8179 312.102 72.1393 306.268 72.1393C297.353 72.1393 292.895 68.6155 292.895 61.568ZM371.854 150.928C373.174 146.304 374.385 141.734 375.486 137.219C376.696 132.704 377.852 127.914 378.953 122.848C380.163 117.673 381.429 112.057 382.75 106C384.181 99.8339 385.832 92.8414 387.703 85.023C388.033 83.4814 388.528 82.4903 389.189 82.0499C389.849 81.4993 391.28 81.224 393.481 81.224C395.132 81.224 397.334 81.279 400.085 81.3891C402.837 81.4993 405.533 81.8847 408.175 82.5454C410.817 83.2061 413.073 84.1971 414.944 85.5186C416.925 86.84 417.916 88.6569 417.916 90.9694C417.916 92.8414 417.255 95.8696 415.935 100.054C414.614 104.239 412.908 109.029 410.817 114.424C408.725 119.71 406.359 125.271 403.717 131.107C401.186 136.944 398.709 142.449 396.288 147.625C393.867 152.8 391.61 157.37 389.519 161.335C387.428 165.189 385.887 167.887 384.896 169.428C384.016 170.64 383.245 171.355 382.585 171.575C381.925 171.796 380.824 171.906 379.283 171.906H364.589C362.278 171.906 360.352 171.52 358.811 170.75C357.38 169.869 356.169 168.767 355.179 167.446C354.188 166.125 353.363 164.638 352.702 162.986C352.042 161.224 351.437 159.408 350.886 157.536C347.694 146.524 344.888 137.109 342.466 129.29C340.155 121.362 338.174 114.755 336.523 109.469C334.872 104.184 333.551 99.999 332.56 96.9157C331.57 93.7223 330.799 91.2997 330.249 89.648C329.699 87.8861 329.313 86.7299 329.093 86.1793C328.873 85.5186 328.763 85.0781 328.763 84.8579C328.873 84.087 329.424 83.2612 330.414 82.3802C331.405 81.4993 332.67 81.0588 334.211 81.0588C339.274 81.0588 343.567 81.279 347.089 81.7195C350.721 82.0499 353.693 82.7106 356.004 83.7016C358.426 84.6927 360.242 86.0692 361.452 87.831C362.773 89.5929 363.709 91.9054 364.259 94.7684C364.369 95.5393 364.589 97.0809 364.919 99.3934C365.25 101.706 365.58 104.514 365.91 107.817C366.35 111.011 366.846 114.59 367.396 118.554C367.946 122.408 368.442 126.317 368.882 130.281C369.432 134.136 369.927 137.88 370.368 141.513C370.918 145.147 371.413 148.286 371.854 150.928ZM443.435 171.906C440.023 171.906 437.216 171.576 435.015 170.915C432.924 170.144 431.218 169.098 429.897 167.776C428.686 166.455 427.806 164.858 427.255 162.986C426.815 161.004 426.595 158.747 426.595 156.214C426.595 154.562 426.65 152.25 426.76 149.277C426.98 146.193 427.31 142.009 427.751 136.723C428.191 131.328 428.686 124.555 429.237 116.407C429.897 108.148 430.667 97.9619 431.548 85.8489C431.658 83.4263 431.933 81.9948 432.373 81.5543C432.704 81.224 433.584 81.0588 435.015 81.0588H441.453C444.866 81.0588 447.617 81.3891 449.709 82.0499C451.91 82.7106 453.616 83.7016 454.827 85.023C456.147 86.3444 457.028 87.9411 457.468 89.8131C458.019 91.6851 458.294 93.7774 458.294 96.0899C458.294 97.7416 458.184 100.219 457.963 103.523C457.743 106.826 457.413 111.341 456.973 117.067C456.643 122.683 456.147 129.731 455.487 138.21C454.827 146.579 454.001 156.71 453.011 168.602C452.9 169.924 452.625 170.805 452.185 171.245C451.745 171.686 450.809 171.906 449.378 171.906H443.435ZM431.713 61.568C431.713 57.1633 433.309 53.6946 436.501 51.1619C439.693 48.6291 443.985 47.3628 449.378 47.3628C454.111 47.3628 457.523 48.3539 459.614 50.336C461.816 52.208 462.916 54.7407 462.916 57.9341C462.916 62.0084 461.375 65.4221 458.294 68.175C455.322 70.8179 450.919 72.1393 445.086 72.1393C436.171 72.1393 431.713 68.6155 431.713 61.568ZM509.845 173.558C502.251 173.558 495.922 172.512 490.859 170.419C485.906 168.217 481.944 165.244 478.972 161.5C476 157.756 473.909 153.406 472.698 148.451C471.487 143.385 470.882 137.99 470.882 132.264C470.882 125.656 471.652 119.215 473.193 112.938C474.844 106.551 477.596 100.88 481.448 95.9247C485.301 90.9694 490.364 87.0051 496.637 84.032C503.021 80.9487 510.946 79.407 520.411 79.407C534.279 79.407 544.185 82.8207 550.129 89.648C556.182 96.3651 559.209 105.835 559.209 118.058C559.209 121.472 558.934 125.271 558.384 129.456C557.943 133.53 557.008 137.604 555.577 141.679C554.256 145.753 552.385 149.717 549.964 153.571C547.652 157.425 544.681 160.839 541.048 163.812C537.416 166.785 533.014 169.153 527.841 170.915C522.778 172.677 516.779 173.558 509.845 173.558ZM517.605 101.376C513.422 101.376 510.065 102.477 507.534 104.679C505.112 106.771 503.241 109.359 501.92 112.442C500.71 115.416 499.884 118.609 499.444 122.023C499.114 125.326 498.949 128.134 498.949 130.447C498.949 137.714 500.104 143.055 502.416 146.469C504.727 149.882 508.029 151.589 512.321 151.589C516.174 151.589 519.311 150.378 521.732 147.955C524.264 145.533 526.19 142.615 527.51 139.201C528.941 135.787 529.877 132.208 530.317 128.464C530.867 124.72 531.143 121.582 531.143 119.049C531.143 113.544 530.097 109.249 528.006 106.166C526.025 102.972 522.558 101.376 517.605 101.376Z" fill="white"/>
</svg>
