<svg width="1307" height="349" viewBox="0 0 1307 349" fill="none" xmlns="http://www.w3.org/2000/svg">
<path d="M447.507 21.1619H391.044V217.262H447.507V21.1619Z" fill="#3176DE"/>
<path d="M342.344 111.453C353.935 111.453 365.088 113.303 375.517 116.718V179.326C366.821 171.353 355.162 166.473 342.344 166.473C315.448 166.473 293.645 187.948 293.645 214.44C293.645 240.932 315.448 262.407 342.344 262.407C368.28 262.407 389.476 242.44 390.958 217.262H391.044V123.218C424.606 140.54 447.508 175.205 447.508 215.145C447.508 272.413 400.424 318.838 342.344 318.838C284.264 318.838 237.181 272.413 237.181 215.145C237.181 157.877 284.264 111.453 342.344 111.453Z" fill="#3176DE"/>
<path d="M569.733 247.52C570.273 241.58 570.813 235.37 571.353 228.89C572.073 222.41 572.613 216.2 572.973 210.26C573.513 204.32 573.963 199.01 574.323 194.33C574.683 189.65 574.863 186.23 574.863 184.07C574.863 179.39 573.693 175.25 571.353 171.65C569.193 167.87 564.873 165.98 558.393 165.98C549.753 165.98 542.733 170.03 537.333 178.13C532.113 186.23 529.053 197.03 528.153 210.53C527.793 214.31 527.343 219.62 526.803 226.46C526.263 233.12 525.723 239.96 525.183 246.98C524.643 253.82 524.103 260.03 523.563 265.61C523.203 271.01 523.023 274.34 523.023 275.6C523.023 277.76 522.573 279.2 521.673 279.92C520.953 280.64 519.423 281 517.083 281H507.363C501.783 281 497.193 280.46 493.593 279.38C490.173 278.12 487.383 276.41 485.223 274.25C483.243 272.09 481.803 269.48 480.903 266.42C480.183 263.18 479.823 259.49 479.823 255.35C479.823 251.39 480.093 245.9 480.633 238.88C481.353 231.68 482.253 221.87 483.333 209.45C484.413 196.85 485.673 180.83 487.113 161.39C488.553 141.95 490.083 117.83 491.703 89.03C491.883 85.07 492.333 82.73 493.053 82.01C493.593 81.47 495.033 81.2 497.373 81.2H507.903C513.303 81.2 517.803 81.83 521.403 83.09C525.003 84.35 527.883 86.06 530.043 88.22C532.203 90.38 533.733 92.9 534.633 95.78C535.533 98.48 535.983 101.36 535.983 104.42C535.983 107.66 535.623 113.69 534.903 122.51C534.363 131.33 533.643 141.68 532.743 153.56C538.143 144.56 544.083 138.35 550.563 134.93C557.223 131.51 565.593 129.8 575.673 129.8C583.233 129.8 589.803 130.61 595.383 132.23C600.963 133.85 605.553 136.64 609.153 140.6C612.933 144.38 615.723 149.42 617.523 155.72C619.323 161.84 620.223 169.49 620.223 178.67C620.223 181.55 619.953 186.5 619.413 193.52C618.873 200.54 618.153 208.55 617.253 217.55C616.533 226.55 615.723 236 614.823 245.9C614.103 255.62 613.473 264.53 612.933 272.63C612.753 274.61 612.573 276.14 612.393 277.22C612.213 278.3 611.853 279.11 611.313 279.65C610.953 280.19 610.323 280.55 609.423 280.73C608.523 280.91 607.263 281 605.643 281H597.003C591.243 281 586.563 280.46 582.963 279.38C579.363 278.3 576.573 276.77 574.593 274.79C572.613 272.81 571.173 270.38 570.273 267.5C569.553 264.44 569.193 261.02 569.193 257.24C569.193 255.44 569.193 253.73 569.193 252.11C569.373 250.49 569.553 248.96 569.733 247.52ZM672.171 281C666.591 281 662.001 280.46 658.401 279.38C654.981 278.12 652.191 276.41 650.031 274.25C648.051 272.09 646.611 269.48 645.711 266.42C644.991 263.18 644.631 259.49 644.631 255.35C644.631 252.65 644.721 248.87 644.901 244.01C645.261 238.97 645.801 232.13 646.521 223.49C647.241 214.67 648.051 203.6 648.951 190.28C650.031 176.78 651.291 160.13 652.731 140.33C652.911 136.37 653.361 134.03 654.081 133.31C654.621 132.77 656.061 132.5 658.401 132.5H668.931C674.511 132.5 679.011 133.04 682.431 134.12C686.031 135.2 688.821 136.82 690.801 138.98C692.961 141.14 694.401 143.75 695.121 146.81C696.021 149.87 696.471 153.29 696.471 157.07C696.471 159.77 696.291 163.82 695.931 169.22C695.571 174.62 695.031 182 694.311 191.36C693.771 200.54 692.961 212.06 691.881 225.92C690.801 239.6 689.451 256.16 687.831 275.6C687.651 277.76 687.201 279.2 686.481 279.92C685.761 280.64 684.231 281 681.891 281H672.171ZM653.001 100.64C653.001 93.44 655.611 87.77 660.831 83.63C666.051 79.49 673.071 77.42 681.891 77.42C689.631 77.42 695.211 79.04 698.631 82.28C702.231 85.34 704.031 89.48 704.031 94.7C704.031 101.36 701.511 106.94 696.471 111.44C691.611 115.76 684.411 117.92 674.871 117.92C660.291 117.92 653.001 112.16 653.001 100.64ZM782.129 246.71C784.289 239.15 786.269 231.68 788.069 224.3C790.049 216.92 791.939 209.09 793.739 200.81C795.719 192.35 797.789 183.17 799.949 173.27C802.289 163.19 804.989 151.76 808.049 138.98C808.589 136.46 809.399 134.84 810.479 134.12C811.559 133.22 813.899 132.77 817.499 132.77C820.199 132.77 823.799 132.86 828.299 133.04C832.799 133.22 837.209 133.85 841.529 134.93C845.849 136.01 849.539 137.63 852.599 139.79C855.839 141.95 857.459 144.92 857.459 148.7C857.459 151.76 856.379 156.71 854.219 163.55C852.059 170.39 849.269 178.22 845.849 187.04C842.429 195.68 838.559 204.77 834.239 214.31C830.099 223.85 826.049 232.85 822.089 241.31C818.129 249.77 814.439 257.24 811.019 263.72C807.599 270.02 805.079 274.43 803.459 276.95C802.019 278.93 800.759 280.1 799.679 280.46C798.599 280.82 796.799 281 794.279 281H770.249C766.469 281 763.319 280.37 760.799 279.11C758.459 277.67 756.479 275.87 754.859 273.71C753.239 271.55 751.889 269.12 750.809 266.42C749.729 263.54 748.739 260.57 747.839 257.51C742.619 239.51 738.029 224.12 734.069 211.34C730.289 198.38 727.049 187.58 724.349 178.94C721.649 170.3 719.489 163.46 717.869 158.42C716.249 153.2 714.989 149.24 714.089 146.54C713.189 143.66 712.559 141.77 712.199 140.87C711.839 139.79 711.659 139.07 711.659 138.71C711.839 137.45 712.739 136.1 714.359 134.66C715.979 133.22 718.049 132.5 720.569 132.5C728.849 132.5 735.869 132.86 741.629 133.58C747.569 134.12 752.429 135.2 756.209 136.82C760.169 138.44 763.139 140.69 765.119 143.57C767.279 146.45 768.809 150.23 769.709 154.91C769.889 156.17 770.249 158.69 770.789 162.47C771.329 166.25 771.869 170.84 772.409 176.24C773.129 181.46 773.939 187.31 774.839 193.79C775.739 200.09 776.549 206.48 777.269 212.96C778.169 219.26 778.979 225.38 779.699 231.32C780.599 237.26 781.409 242.39 782.129 246.71ZM899.193 281C893.613 281 889.023 280.46 885.423 279.38C882.003 278.12 879.213 276.41 877.053 274.25C875.073 272.09 873.633 269.48 872.733 266.42C872.013 263.18 871.653 259.49 871.653 255.35C871.653 252.65 871.743 248.87 871.923 244.01C872.283 238.97 872.823 232.13 873.543 223.49C874.263 214.67 875.073 203.6 875.973 190.28C877.053 176.78 878.313 160.13 879.753 140.33C879.933 136.37 880.383 134.03 881.103 133.31C881.643 132.77 883.083 132.5 885.423 132.5H895.952C901.533 132.5 906.033 133.04 909.453 134.12C913.053 135.2 915.843 136.82 917.823 138.98C919.983 141.14 921.423 143.75 922.143 146.81C923.043 149.87 923.493 153.29 923.493 157.07C923.493 159.77 923.313 163.82 922.953 169.22C922.593 174.62 922.053 182 921.333 191.36C920.793 200.54 919.983 212.06 918.903 225.92C917.823 239.6 916.473 256.16 914.853 275.6C914.673 277.76 914.223 279.2 913.503 279.92C912.783 280.64 911.253 281 908.913 281H899.193ZM880.023 100.64C880.023 93.44 882.633 87.77 887.853 83.63C893.073 79.49 900.093 77.42 908.913 77.42C916.653 77.42 922.233 79.04 925.653 82.28C929.253 85.34 931.053 89.48 931.053 94.7C931.053 101.36 928.533 106.94 923.493 111.44C918.633 115.76 911.433 117.92 901.893 117.92C887.313 117.92 880.023 112.16 880.023 100.64ZM1007.8 283.7C995.38 283.7 985.03 281.99 976.75 278.57C968.65 274.97 962.17 270.11 957.31 263.99C952.45 257.87 949.03 250.76 947.05 242.66C945.07 234.38 944.08 225.56 944.08 216.2C944.08 205.4 945.34 194.87 947.86 184.61C950.56 174.17 955.06 164.9 961.36 156.8C967.66 148.7 975.94 142.22 986.2 137.36C996.64 132.32 1009.6 129.8 1025.08 129.8C1047.76 129.8 1063.96 135.38 1073.68 146.54C1083.58 157.52 1088.53 173 1088.53 192.98C1088.53 198.56 1088.08 204.77 1087.18 211.61C1086.46 218.27 1084.93 224.93 1082.59 231.59C1080.43 238.25 1077.37 244.73 1073.41 251.03C1069.63 257.33 1064.77 262.91 1058.83 267.77C1052.89 272.63 1045.69 276.5 1037.23 279.38C1028.95 282.26 1019.14 283.7 1007.8 283.7ZM1020.49 165.71C1013.65 165.71 1008.16 167.51 1004.02 171.11C1000.06 174.53 997 178.76 994.84 183.8C992.86 188.66 991.51 193.88 990.79 199.46C990.25 204.86 989.98 209.45 989.98 213.23C989.98 225.11 991.87 233.84 995.65 239.42C999.43 245 1004.83 247.79 1011.85 247.79C1018.15 247.79 1023.28 245.81 1027.24 241.85C1031.38 237.89 1034.53 233.12 1036.69 227.54C1039.03 221.96 1040.56 216.11 1041.28 209.99C1042.18 203.87 1042.63 198.74 1042.63 194.6C1042.63 185.6 1040.92 178.58 1037.5 173.54C1034.26 168.32 1028.59 165.71 1020.49 165.71Z" fill="black"/>
</svg>
